<?xml version="1.0" encoding="UTF-8"?>
<svg version="1.1" xmlns="http://www.w3.org/2000/svg" width="500" height="500">
<path d="M0 0 C165 0 330 0 500 0 C500 165 500 330 500 500 C335 500 170 500 0 500 C0 335 0 170 0 0 Z " fill="#000000" transform="translate(0,0)"/>
<path d="M0 0 C3.71819473 2.72667613 4.84499731 4.27267969 5.8125 8.8125 C5.874375 9.864375 5.93625 10.91625 6 12 C6.68707031 11.7834375 7.37414062 11.566875 8.08203125 11.34375 C8.98308594 11.0653125 9.88414062 10.786875 10.8125 10.5 C11.70582031 10.2215625 12.59914063 9.943125 13.51953125 9.65625 C16 9 16 9 19 9 C19.66 7.02 20.32 5.04 21 3 C21.66 3 22.32 3 23 3 C23 4.32 23 5.64 23 7 C27.62 7 32.24 7 37 7 C37 7.66 37 8.32 37 9 C29.08 9.495 29.08 9.495 21 10 C20.67 23.86 20.34 37.72 20 52 C19.34 52 18.68 52 18 52 C18 46.39 18 40.78 18 35 C17.34 35 16.68 35 16 35 C15.67 35.99 15.34 36.98 15 38 C13.26773725 39.60812665 11.4654991 41.14197316 9.625 42.625 C8.64789063 43.42164063 7.67078125 44.21828125 6.6640625 45.0390625 C4 47 4 47 1 48 C1.04640625 48.556875 1.0928125 49.11375 1.140625 49.6875 C1.42414925 55.68201276 0.65822123 60.13935508 -3 65 C-6.20318307 68.13631077 -9.06684657 70.79318418 -13.62890625 71.28125 C-16 71 -16 71 -18 69 C-17.80322638 63.94713456 -16.18820794 61.52940266 -12.75 57.9375 C-11.94175781 57.08285156 -11.13351562 56.22820312 -10.30078125 55.34765625 C-9.54152344 54.57292969 -8.78226562 53.79820312 -8 53 C-7.43667969 52.42121094 -6.87335938 51.84242188 -6.29296875 51.24609375 C-5.20936047 50.14999431 -4.10758968 49.07186098 -3 48 C-7.02185948 43.79532873 -10.17437958 43.85317941 -15.8125 43.6875 C-16.88081055 43.67299805 -16.88081055 43.67299805 -17.97070312 43.65820312 C-21.57109607 43.51498675 -23.8521282 43.0887621 -26.9609375 41.22265625 C-29.1628082 38.82253283 -29.75086041 37.95525879 -29.8125 34.75 C-29.31018189 24.79228211 -22.61523743 13.56756168 -15.78515625 6.55078125 C-11.15127795 2.5252896 -6.43472335 -1.42993852 0 0 Z " fill="#040404" transform="translate(294,215)"/>
<path d="M0 0 C2.4375 1.375 2.4375 1.375 4 4 C6.02641658 12.86336992 1.53334458 21.11307013 -2 29 C-2.66 29 -3.32 29 -4 29 C-3.53419537 25.36672391 -2.72161354 22.16016944 -1.4375 18.75 C0.30080624 13.79667105 0.29291168 9.19647023 0 4 C-2.78938212 3.58109782 -2.78938212 3.58109782 -6 4 C-16.18599512 12.71254929 -19.38458087 26.41505309 -22 39 C-22.19335938 39.87011719 -22.38671875 40.74023438 -22.5859375 41.63671875 C-23.93531511 49.33835513 -23.40042935 56.90277361 -20 64 C-18.13999185 66.26339699 -18.13999185 66.26339699 -15.25 66.375 C-7.41503346 65.4709654 -2.27235184 58.6693572 2.4375 52.875 C7.71901102 45.95598992 12.10051902 38.5476644 14 30 C14.66 30 15.32 30 16 30 C16 31.65 16 33.3 16 35 C18.31 35 20.62 35 23 35 C23.309375 34.195625 23.61875 33.39125 23.9375 32.5625 C25 30 25 30 26 29 C27.66617115 28.95936168 29.33388095 28.957279 31 29 C30.4409112 32.24271506 29.5867822 33.93057424 27 36 C26.34 36 25.68 36 25 36 C25.33 36.99 25.66 37.98 26 39 C30.43792446 38.49280863 32.73734552 37.01168106 36 34 C36.66 33.0925 37.32 32.185 38 31.25 C40 29 40 29 42.75 28.6875 C43.4925 28.790625 44.235 28.89375 45 29 C45.495 30.485 45.495 30.485 46 32 C45.34 32 44.68 32 44 32 C44.495 34.97 44.495 34.97 45 38 C48.93075644 37.42547254 48.93075644 37.42547254 52 35 C52.2826744 32.18491268 52.46641187 29.44671 52.5625 26.625 C52.62277942 25.0962112 52.68647287 23.56755245 52.75390625 22.0390625 C52.77783447 21.36053223 52.8017627 20.68200195 52.82641602 19.98291016 C53.00841903 17.90382645 53.44304839 16.00839277 54 14 C51.9366887 14.62231644 49.8743831 15.24796785 47.8125 15.875 C46.66394531 16.22304687 45.51539063 16.57109375 44.33203125 16.9296875 C41.49128843 17.84218871 38.75114535 18.84980364 36 20 C37 17 37 17 39.0390625 15.8671875 C44.06631941 13.93830041 48.62667696 12.46724548 54 12 C54.66 10.02 55.32 8.04 56 6 C56.66 6 57.32 6 58 6 C58 7.32 58 8.64 58 10 C62.62 10 67.24 10 72 10 C72 10.66 72 11.32 72 12 C64.08 12.495 64.08 12.495 56 13 C55.67 26.86 55.34 40.72 55 55 C54.34 55 53.68 55 53 55 C52.67 49.72 52.34 44.44 52 39 C50.68 39.99 49.36 40.98 48 42 C45.31219342 41.83710263 44.25870996 41.23099103 42.25 39.4375 C41.8375 38.963125 41.425 38.48875 41 38 C40.34 39.32 39.68 40.64 39 42 C37.68 42 36.36 42 35 42 C34.67 41.01 34.34 40.02 34 39 C33.1646875 39.7425 33.1646875 39.7425 32.3125 40.5 C29.58491075 42.26924708 28.19151509 42.4199362 25 42 C24.34 41.34 23.68 40.68 23 40 C23 38.68 23 37.36 23 36 C20.57080135 35.86559222 20.57080135 35.86559222 18 37 C16.61706907 39.55518097 15.78208351 42.20866129 15 45 C14.34 45 13.68 45 13 45 C12.67 44.34 12.34 43.68 12 43 C11.43152344 44.00160156 10.86304688 45.00320313 10.27734375 46.03515625 C4.73259137 55.64614084 -0.45809379 64.37635692 -11 69 C-14.04226225 69.61659617 -15.80469667 69.46383435 -19 69 C-23.62682289 65.70981483 -25.91552165 61.4968979 -27 56 C-28.76458532 39.0910066 -24.24201133 21.27441087 -15 7 C-10.7753601 1.85043894 -6.98860205 -1.47835813 0 0 Z " fill="#EDEDED" transform="translate(153,212)"/>
<path d="M0 0 C3.71819473 2.72667613 4.84499731 4.27267969 5.8125 8.8125 C5.874375 9.864375 5.93625 10.91625 6 12 C6.68707031 11.7834375 7.37414062 11.566875 8.08203125 11.34375 C8.98308594 11.0653125 9.88414062 10.786875 10.8125 10.5 C11.70582031 10.2215625 12.59914063 9.943125 13.51953125 9.65625 C16 9 16 9 19 9 C19.66 7.02 20.32 5.04 21 3 C21.66 3 22.32 3 23 3 C23 4.32 23 5.64 23 7 C27.62 7 32.24 7 37 7 C37 7.66 37 8.32 37 9 C29.08 9.495 29.08 9.495 21 10 C20.67 23.86 20.34 37.72 20 52 C19.34 52 18.68 52 18 52 C18 46.39 18 40.78 18 35 C17.34 35 16.68 35 16 35 C15.67 35.99 15.34 36.98 15 38 C13.26773725 39.60812665 11.4654991 41.14197316 9.625 42.625 C8.64789063 43.42164063 7.67078125 44.21828125 6.6640625 45.0390625 C4 47 4 47 1 48 C1.04640625 48.556875 1.0928125 49.11375 1.140625 49.6875 C1.42414925 55.68201276 0.65822123 60.13935508 -3 65 C-6.20318307 68.13631077 -9.06684657 70.79318418 -13.62890625 71.28125 C-16 71 -16 71 -18 69 C-17.80322638 63.94713456 -16.18820794 61.52940266 -12.75 57.9375 C-11.94175781 57.08285156 -11.13351562 56.22820312 -10.30078125 55.34765625 C-9.54152344 54.57292969 -8.78226562 53.79820312 -8 53 C-7.43667969 52.42121094 -6.87335938 51.84242188 -6.29296875 51.24609375 C-5.20936047 50.14999431 -4.10758968 49.07186098 -3 48 C-7.02185948 43.79532873 -10.17437958 43.85317941 -15.8125 43.6875 C-16.88081055 43.67299805 -16.88081055 43.67299805 -17.97070312 43.65820312 C-21.57109607 43.51498675 -23.8521282 43.0887621 -26.9609375 41.22265625 C-29.1628082 38.82253283 -29.75086041 37.95525879 -29.8125 34.75 C-29.31018189 24.79228211 -22.61523743 13.56756168 -15.78515625 6.55078125 C-11.15127795 2.5252896 -6.43472335 -1.42993852 0 0 Z M-20 16 C-23.94950401 22.33797297 -28.44214324 30.24480114 -27 38 C-24.69075372 40.54872367 -23.21671442 40.97254775 -19.79296875 41.40625 C-18.60316406 41.4371875 -17.41335938 41.468125 -16.1875 41.5 C-10.70352708 41.77991112 -6.74980995 42.23848259 -2 45 C-1.67 45.66 -1.34 46.32 -1 47 C1.82462122 45.69404215 4.07144311 44.25372808 6.41796875 42.21484375 C7.03220703 41.68439453 7.64644531 41.15394531 8.27929688 40.60742188 C8.90900391 40.05634766 9.53871094 39.50527344 10.1875 38.9375 C10.82880859 38.38255859 11.47011719 37.82761719 12.13085938 37.25585938 C16.25470944 34.22847697 16.25470944 34.22847697 18.20532227 29.95874023 C18.26030884 28.64691772 18.26030884 28.64691772 18.31640625 27.30859375 C18.37924805 25.89223633 18.37924805 25.89223633 18.44335938 24.44726562 C18.48267578 23.45404297 18.52199219 22.46082031 18.5625 21.4375 C18.62727539 19.94186523 18.62727539 19.94186523 18.69335938 18.41601562 C18.79980298 15.9441585 18.90181928 13.4721969 19 11 C17.39431334 11.28317926 15.79047953 11.57687791 14.1875 11.875 C13.29417969 12.03742188 12.40085937 12.19984375 11.48046875 12.3671875 C8.77272154 12.91188449 8.77272154 12.91188449 6 15 C5.04990399 18.07127296 5.04990399 18.07127296 4.4375 21.5625 C4.01904073 23.72099328 3.55299156 25.87199584 3 28 C2.34 28.33 1.68 28.66 1 29 C1.33 27.948125 1.66 26.89625 2 25.8125 C2.83966782 22.61126643 3.19750904 20.2588992 3 17 C2.34 17 1.68 17 1 17 C1.66 16.01 2.32 15.02 3 14 C3.32783949 10.39376565 3.40343025 7.87409887 1.875 4.5625 C0.03475413 2.76640908 0.03475413 2.76640908 -2.8125 2.5 C-10.53255909 3.71098966 -15.51526301 10.01737868 -20 16 Z " fill="#DCDCDC" transform="translate(294,215)"/>
<path d="M0 0 C2.4375 1.375 2.4375 1.375 4 4 C6.02641658 12.86336992 1.53334458 21.11307013 -2 29 C-2.66 29 -3.32 29 -4 29 C-3.53419537 25.36672391 -2.72161354 22.16016944 -1.4375 18.75 C0.30080624 13.79667105 0.29291168 9.19647023 0 4 C-2.78938212 3.58109782 -2.78938212 3.58109782 -6 4 C-16.18599512 12.71254929 -19.38458087 26.41505309 -22 39 C-22.19335938 39.87011719 -22.38671875 40.74023438 -22.5859375 41.63671875 C-23.93531511 49.33835513 -23.40042935 56.90277361 -20 64 C-18.13678996 66.29102513 -18.13678996 66.29102513 -15.1875 66.25 C-12.03686185 66.00289113 -9.84084818 65.33686973 -7 64 C-7 64.99 -7 65.98 -7 67 C-10.69533452 69.46355635 -14.70989313 69.81187281 -19 69 C-23.62682289 65.70981483 -25.91552165 61.4968979 -27 56 C-28.76458532 39.0910066 -24.24201133 21.27441087 -15 7 C-10.7753601 1.85043894 -6.98860205 -1.47835813 0 0 Z " fill="#E7E7E7" transform="translate(153,212)"/>
<path d="M0 0 C0.66 0 1.32 0 2 0 C1.85769192 1.41702513 1.71099254 2.8336096 1.5625 4.25 C1.48128906 5.03890625 1.40007812 5.8278125 1.31640625 6.640625 C1 9 1 9 0.5 10.7265625 C-0.16310688 13.74162658 -0.22168056 16.64902382 -0.31640625 19.734375 C-0.35830078 21.02988281 -0.40019531 22.32539063 -0.44335938 23.66015625 C-0.48316671 25.02343476 -0.52287906 26.38671606 -0.5625 27.75 C-0.60572274 29.12891875 -0.64933821 30.50782526 -0.69335938 31.88671875 C-0.79943958 35.2577119 -0.9014985 38.62877826 -1 42 C-3.56110312 39.74897223 -3.96784023 39.21087968 -4.51171875 35.64453125 C-4.56972656 34.37996094 -4.62773437 33.11539063 -4.6875 31.8125 C-4.75324219 30.54019531 -4.81898438 29.26789063 -4.88671875 27.95703125 C-4.92410156 26.98121094 -4.96148437 26.00539062 -5 25 C-5.99 26.65 -6.98 28.3 -8 30 C-9.9375 29.625 -9.9375 29.625 -12 29 C-12.33 28.34 -12.66 27.68 -13 27 C-13.99 27.66 -14.98 28.32 -16 29 C-18.5625 28.9375 -18.5625 28.9375 -21 28 C-22.3125 25.4375 -22.3125 25.4375 -23 23 C-23.32613281 23.5053125 -23.65226562 24.010625 -23.98828125 24.53125 C-24.64376953 25.50578125 -24.64376953 25.50578125 -25.3125 26.5 C-25.74175781 27.1496875 -26.17101562 27.799375 -26.61328125 28.46875 C-27.07089844 28.9740625 -27.52851563 29.479375 -28 30 C-28.99 30 -29.98 30 -31 30 C-32.23050689 27.53898622 -31.98600075 26.27573817 -31.6875 23.5625 C-31.60886719 22.78003906 -31.53023438 21.99757812 -31.44921875 21.19140625 C-31 19 -31 19 -29 16 C-28.34 16 -27.68 16 -27 16 C-27.33 19.3 -27.66 22.6 -28 26 C-27.05125 24.68 -26.1025 23.36 -25.125 22 C-23.5078125 19.75 -23.5078125 19.75 -22 18 C-21.34 18 -20.68 18 -20 18 C-19.67 20.64 -19.34 23.28 -19 26 C-15.63271465 25.75057146 -14.83327958 24.81660754 -12.5 22.25 C-10.9152666 20.23748581 -9.39797965 18.18550188 -7.875 16.125 C-7.25625 15.42375 -6.6375 14.7225 -6 14 C-5.01 14 -4.02 14 -3 14 C-2.95101563 13.32453125 -2.90203125 12.6490625 -2.8515625 11.953125 C-2.77679688 11.06109375 -2.70203125 10.1690625 -2.625 9.25 C-2.55539062 8.36828125 -2.48578125 7.4865625 -2.4140625 6.578125 C-2.00149945 4.00933618 -1.28839043 2.24158985 0 0 Z " fill="#DDDDDD" transform="translate(349,225)"/>
<path d="M0 0 C3.71819473 2.72667613 4.84499731 4.27267969 5.8125 8.8125 C5.874375 9.864375 5.93625 10.91625 6 12 C7.65 12 9.3 12 11 12 C10.37222656 12.35835937 9.74445313 12.71671875 9.09765625 13.0859375 C6.23653868 15.69664068 6.10242806 17.85289237 5.4375 21.625 C4.80859375 25.1640625 4.80859375 25.1640625 4 28 C3.01 28.33 2.02 28.66 1 29 C1.55312735 24.97007218 2.1558062 20.97977076 3 17 C2.34 17 1.68 17 1 17 C1.33 16.01 1.66 15.02 2 14 C2.343491 8.66704568 2.343491 8.66704568 0 4 C-3.58659174 3.42940586 -5.59694083 3.80723257 -8.875 5.375 C-16.66910267 11.18477732 -23.75758772 21.23163458 -25.5234375 30.8515625 C-25.7725436 33.24163457 -25.94379179 35.59837628 -26 38 C-22.36280395 40.42479736 -20.14296518 40.38662577 -15.8125 40.625 C-14.54019531 40.69976562 -13.26789063 40.77453125 -11.95703125 40.8515625 C-10.98121094 40.90054688 -10.00539063 40.94953125 -9 41 C-9 41.33 -9 41.66 -9 42 C-11.77141717 42.08089542 -14.54047819 42.14044062 -17.3125 42.1875 C-18.49102539 42.22520508 -18.49102539 42.22520508 -19.69335938 42.26367188 C-20.45068359 42.27333984 -21.20800781 42.28300781 -21.98828125 42.29296875 C-22.68477783 42.3086792 -23.38127441 42.32438965 -24.09887695 42.34057617 C-26.58061769 41.8959854 -27.44375892 40.93938859 -29 39 C-31.18208932 31.71152478 -27.63588631 25.0871492 -24.33862305 18.76953125 C-19.73511475 10.38460543 -11.19048705 -2.4867749 0 0 Z " fill="#E6E6E6" transform="translate(294,215)"/>
<path d="M0 0 C0.66 0 1.32 0 2 0 C2 1.32 2 2.64 2 4 C6.62 4 11.24 4 16 4 C16 4.66 16 5.32 16 6 C8.08 6.495 8.08 6.495 0 7 C-0.33 20.86 -0.66 34.72 -1 49 C-1.66 49 -2.32 49 -3 49 C-3.33 43.72 -3.66 38.44 -4 33 C-5.32 33.99 -6.64 34.98 -8 36 C-10.25 35.6875 -10.25 35.6875 -12 35 C-12.33 33.68 -12.66 32.36 -13 31 C-12.071875 31.226875 -11.14375 31.45375 -10.1875 31.6875 C-7.1453998 32.29690561 -7.1453998 32.29690561 -5.33984375 31.046875 C-3.22442016 27.81514917 -3.46312699 24.31104431 -3.375 20.5625 C-3.32370381 19.04285049 -3.26912171 17.52330763 -3.2109375 16.00390625 C-3.18459229 14.99565796 -3.18459229 14.99565796 -3.15771484 13.96704102 C-2.9910833 11.88878968 -2.55801016 10.00564635 -2 8 C-4.0633113 8.62231644 -6.1256169 9.24796785 -8.1875 9.875 C-9.91033203 10.39707031 -9.91033203 10.39707031 -11.66796875 10.9296875 C-14.50871157 11.84218871 -17.24885465 12.84980364 -20 14 C-19 11 -19 11 -16.9609375 9.8671875 C-11.93368059 7.93830041 -7.37332304 6.46724548 -2 6 C-1.34 4.02 -0.68 2.04 0 0 Z " fill="#D6D6D6" transform="translate(209,218)"/>
<path d="M0 0 C0.66 0 1.32 0 2 0 C2.33 3.96 2.66 7.92 3 12 C8.03770508 9.98491797 8.91243 9.04578138 12 5 C12.66 5 13.32 5 14 5 C14.66 3.35 15.32 1.7 16 0 C16.99 0.33 17.98 0.66 19 1 C20.45295405 10.01531729 20.45295405 10.01531729 18.5625 14.125 C18.046875 14.74375 17.53125 15.3625 17 16 C14.525 15.505 14.525 15.505 12 15 C11.67 13.68 11.34 12.36 11 11 C10.278125 11.66 9.55625 12.32 8.8125 13 C5.78402067 15.1535853 4.60296594 15.41176754 1 15 C-0.87592203 11.81908874 -1.24719681 9.48656709 -1.1875 5.8125 C-1.18105469 4.93207031 -1.17460937 4.05164063 -1.16796875 3.14453125 C-1 1 -1 1 0 0 Z " fill="#9A9A9A" transform="translate(351,242)"/>
<path d="M0 0 C0.66 0 1.32 0 2 0 C2 4.29 2 8.58 2 13 C3.98 9.37 5.96 5.74 8 2 C8.66 2 9.32 2 10 2 C8.31910452 8.14961761 6.40439414 12.3575305 2 17 C0.68 16.67 -0.64 16.34 -2 16 C-2.33 14.35 -2.66 12.7 -3 11 C-3.721875 11.825 -4.44375 12.65 -5.1875 13.5 C-8 16 -8 16 -10.6875 16.5 C-13 16 -13 16 -15 13 C-15.1953125 10.30078125 -15.1953125 10.30078125 -15.125 7.3125 C-15.10695312 6.31863281 -15.08890625 5.32476562 -15.0703125 4.30078125 C-15.04710937 3.54152344 -15.02390625 2.78226563 -15 2 C-14.01 1.67 -13.02 1.34 -12 1 C-12 5.29 -12 9.58 -12 14 C-5.82535305 11.47400806 -3.37131735 8.1540299 -0.75 2.125 C-0.5025 1.42375 -0.255 0.7225 0 0 Z " fill="#DFDFDF" transform="translate(227,241)"/>
<path d="M0 0 C0.66 0 1.32 0 2 0 C1.85769192 1.41702513 1.71099254 2.8336096 1.5625 4.25 C1.48128906 5.03890625 1.40007812 5.8278125 1.31640625 6.640625 C1 9 1 9 0.5 10.7265625 C-0.16310688 13.74162658 -0.22168056 16.64902382 -0.31640625 19.734375 C-0.35830078 21.02988281 -0.40019531 22.32539063 -0.44335938 23.66015625 C-0.48316671 25.02343476 -0.52287906 26.38671606 -0.5625 27.75 C-0.60572274 29.12891875 -0.64933821 30.50782526 -0.69335938 31.88671875 C-0.79943958 35.2577119 -0.9014985 38.62877826 -1 42 C-3.25128105 40.23094912 -3.94478784 39.32481958 -4.43237305 36.45629883 C-4.45855713 35.46654053 -4.48474121 34.47678223 -4.51171875 33.45703125 C-4.54716797 32.38388672 -4.58261719 31.31074219 -4.61914062 30.20507812 C-4.64169922 29.08552734 -4.66425781 27.96597656 -4.6875 26.8125 C-4.72166016 25.68134766 -4.75582031 24.55019531 -4.79101562 23.38476562 C-4.87356314 20.5899426 -4.94269182 17.79543602 -5 15 C-4.34 15 -3.68 15 -3 15 C-2.95101563 14.25234375 -2.90203125 13.5046875 -2.8515625 12.734375 C-2.77679688 11.74953125 -2.70203125 10.7646875 -2.625 9.75 C-2.55539062 8.77546875 -2.48578125 7.8009375 -2.4140625 6.796875 C-2.01534751 4.10366811 -1.36492937 2.33036721 0 0 Z " fill="#BFBFBF" transform="translate(349,225)"/>
<path d="M0 0 C1.11375 0.1546875 1.11375 0.1546875 2.25 0.3125 C2.58 1.3025 2.91 2.2925 3.25 3.3125 C2.59 3.3125 1.93 3.3125 1.25 3.3125 C0.92 5.6225 0.59 7.9325 0.25 10.3125 C-0.41 9.9825 -1.07 9.6525 -1.75 9.3125 C-2.41 10.6325 -3.07 11.9525 -3.75 13.3125 C-5.07 13.3125 -6.39 13.3125 -7.75 13.3125 C-8.08 12.3225 -8.41 11.3325 -8.75 10.3125 C-9.306875 10.8075 -9.86375 11.3025 -10.4375 11.8125 C-13.16508925 13.58174708 -14.55848491 13.7324362 -17.75 13.3125 C-18.41 12.6525 -19.07 11.9925 -19.75 11.3125 C-19.375 9.1875 -19.375 9.1875 -18.75 7.3125 C-17.76 8.7975 -17.76 8.7975 -16.75 10.3125 C-12.31207554 9.80530863 -10.01265448 8.32418106 -6.75 5.3125 C-6.09 4.405 -5.43 3.4975 -4.75 2.5625 C-2.75 0.3125 -2.75 0.3125 0 0 Z " fill="#DDDDDD" transform="translate(195.75,240.6875)"/>
<path d="M0 0 C0.7425513 5.94041036 -1.5044363 9.44974036 -5 14 C-7.43036889 16.43036889 -8.31817183 16.95351172 -11.75 17.1875 C-12.86375 17.0946875 -12.86375 17.0946875 -14 17 C-13.0794035 10.03496073 -8.2410401 5.94873053 -3.125 1.5 C-1 0 -1 0 0 0 Z " fill="#0B0B0B" transform="translate(293,266)"/>
<path d="M0 0 C0.33 0 0.66 0 1 0 C1 11.88 1 23.76 1 36 C0.34 36 -0.32 36 -1 36 C-1.33 30.72 -1.66 25.44 -2 20 C-3.32 20.99 -4.64 21.98 -6 23 C-8.25 22.6875 -8.25 22.6875 -10 22 C-10.33 20.68 -10.66 19.36 -11 18 C-10.071875 18.226875 -9.14375 18.45375 -8.1875 18.6875 C-5.12016781 19.322142 -5.12016781 19.322142 -3.33984375 17.92578125 C-1.41488671 15.15900627 -1.51788027 12.83888632 -1.375 9.5 C-1.07874016 3.23622047 -1.07874016 3.23622047 0 0 Z " fill="#F9F9F9" transform="translate(207,231)"/>
<path d="M0 0 C0.66 0 1.32 0 2 0 C2 1.32 2 2.64 2 4 C6.62 4 11.24 4 16 4 C16 4.66 16 5.32 16 6 C8.08 6.495 8.08 6.495 0 7 C0 10.96 0 14.92 0 19 C-3 16 -3 16 -3.07421875 13.95703125 C-2.71614583 11.97135417 -2.35807292 9.98567708 -2 8 C-2.721875 8.350625 -3.44375 8.70125 -4.1875 9.0625 C-7.3122705 10.10409017 -8.88161996 9.89096572 -12 9 C-8.55549263 6.70366176 -6.06187717 6.45983515 -2 6 C-1.34 4.02 -0.68 2.04 0 0 Z " fill="#D6D6D6" transform="translate(315,218)"/>
<path d="M0 0 C-0.25 2.375 -0.25 2.375 -1 5 C-3.0625 6.3125 -3.0625 6.3125 -5 7 C-4.67 7.99 -4.34 8.98 -4 10 C0.51478398 9.46884894 3.34666857 7.63379708 7 5 C5.49389913 9.21708244 2.88228147 10.94467452 -1 13 C-4.45742385 12.84284437 -5.54235443 12.45764557 -8 10 C-7.81266563 6.56553663 -7.64297988 3.94916078 -5.6875 1.0625 C-4 0 -4 0 0 0 Z " fill="#CFCFCF" transform="translate(245,241)"/>
<path d="M0 0 C0.99 0.33 1.98 0.66 3 1 C4.42949408 9.86975242 4.42949408 9.86975242 2.8125 14.125 C2.214375 14.74375 1.61625 15.3625 1 16 C-0.32 16 -1.64 16 -3 16 C-3 14.35 -3 12.7 -3 11 C-2.67 11.66 -2.34 12.32 -2 13 C-1.34 12.67 -0.68 12.34 0 12 C0 10.35 0 8.7 0 7 C-0.33 7.99 -0.66 8.98 -1 10 C-1.66 10 -2.32 10 -3 10 C-3.33 8.35 -3.66 6.7 -4 5 C-3.34 5 -2.68 5 -2 5 C-1.34 3.35 -0.68 1.7 0 0 Z " fill="#DFDFDF" transform="translate(367,242)"/>
<path d="M0 0 C0.33 0 0.66 0 1 0 C1 11.88 1 23.76 1 36 C0.34 36 -0.32 36 -1 36 C-1 30.06 -1 24.12 -1 18 C-1.66 17.67 -2.32 17.34 -3 17 C-2.67 16.67 -2.34 16.34 -2 16 C-1.78964095 13.87887958 -1.63149899 11.75246581 -1.5 9.625 C-1.28419953 6.14907092 -1.1024508 3.3073524 0 0 Z " fill="#FBFBFB" transform="translate(313,231)"/>
<path d="M0 0 C0.66 0 1.32 0 2 0 C1.67 3.3 1.34 6.6 1 10 C1.94875 8.68 2.8975 7.36 3.875 6 C5.4921875 3.75 5.4921875 3.75 7 2 C7.66 2 8.32 2 9 2 C9 3.98 9 5.96 9 8 C8.34 7.34 7.68 6.68 7 6 C6.60167969 6.5775 6.20335937 7.155 5.79296875 7.75 C5.26316406 8.4925 4.73335938 9.235 4.1875 10 C3.66542969 10.7425 3.14335937 11.485 2.60546875 12.25 C2.07566406 12.8275 1.54585938 13.405 1 14 C0.01 14 -0.98 14 -2 14 C-3.23050689 11.53898622 -2.98600075 10.27573817 -2.6875 7.5625 C-2.60886719 6.78003906 -2.53023438 5.99757812 -2.44921875 5.19140625 C-2 3 -2 3 0 0 Z " fill="#D6D6D6" transform="translate(320,241)"/>
<path d="M0 0 C0.99 0 1.98 0 3 0 C4.18940804 9.36108177 0.73649037 16.65961971 -3 25 C-3.66 25 -4.32 25 -5 25 C-4.53726869 21.39069576 -3.73943957 18.15392428 -2.5 14.75 C-0.80158114 9.88672259 -0.30998049 5.12002261 0 0 Z " fill="#CCCCCC" transform="translate(154,216)"/>
<path d="M0 0 C0.66 0 1.32 0 2 0 C2 0.66 2 1.32 2 2 C3.65 2 5.3 2 7 2 C6.37222656 2.35835937 5.74445313 2.71671875 5.09765625 3.0859375 C2.23653868 5.69664068 2.10242806 7.85289237 1.4375 11.625 C0.80859375 15.1640625 0.80859375 15.1640625 0 18 C-0.99 18.33 -1.98 18.66 -3 19 C-2.44687265 14.97007218 -1.8441938 10.97977076 -1 7 C-1.66 7 -2.32 7 -3 7 C-2.67 6.01 -2.34 5.02 -2 4 C-1.34 4 -0.68 4 0 4 C0 2.68 0 1.36 0 0 Z " fill="#EDEDED" transform="translate(298,225)"/>
<path d="M0 0 C0.66 0 1.32 0 2 0 C1.39700836 7.23589973 -0.1150587 13.99370876 -2 21 C-2.99 21 -3.98 21 -5 21 C-5 19.02 -5 17.04 -5 15 C-4.34 15 -3.68 15 -3 15 C-2.95101563 14.25234375 -2.90203125 13.5046875 -2.8515625 12.734375 C-2.77679688 11.74953125 -2.70203125 10.7646875 -2.625 9.75 C-2.55539062 8.77546875 -2.48578125 7.8009375 -2.4140625 6.796875 C-2.01534751 4.10366811 -1.36492937 2.33036721 0 0 Z " fill="#C7C7C7" transform="translate(349,225)"/>
<path d="M0 0 C0.66 0.99 1.32 1.98 2 3 C-1.00331665 6.86140712 -3.44198125 9.94889156 -8 12 C-10.6875 12.3125 -10.6875 12.3125 -13 12 C-13.66 11.34 -14.32 10.68 -15 10 C-14.625 6.875 -14.625 6.875 -14 4 C-12 7 -12 7 -12 9 C-7.91426806 8.13571055 -5.54237169 7.57091757 -2.625 4.5 C-1.01913876 2.13201836 -1.01913876 2.13201836 0 0 Z " fill="#D3D3D3" transform="translate(291,274)"/>
<path d="M0 0 C0.66 0 1.32 0 2 0 C2.04898437 0.85464844 2.09796875 1.70929688 2.1484375 2.58984375 C2.22320312 3.69457031 2.29796875 4.79929688 2.375 5.9375 C2.44460938 7.03964844 2.51421875 8.14179688 2.5859375 9.27734375 C2.72257812 10.17582031 2.85921875 11.07429687 3 12 C3.66 12.33 4.32 12.66 5 13 C5 13.66 5 14.32 5 15 C3.68 15 2.36 15 1 15 C-0.87592203 11.81908874 -1.24719681 9.48656709 -1.1875 5.8125 C-1.18105469 4.93207031 -1.17460937 4.05164063 -1.16796875 3.14453125 C-1 1 -1 1 0 0 Z " fill="#EFEFEF" transform="translate(351,242)"/>
<path d="M0 0 C4.03884885 -0.46963359 5.54121494 -0.35683282 8.8125 2.1875 C10.9882377 4.98487704 11.70197895 6.52308771 12 10 C11.34 10 10.68 10 10 10 C9.67 11.32 9.34 12.64 9 14 C8.91363281 13.37351563 8.82726562 12.74703125 8.73828125 12.1015625 C8.3141372 9.63452282 7.85294433 7.35533866 7 5 C4.58500543 3.53335352 4.58500543 3.53335352 2 3 C1.34 2.01 0.68 1.02 0 0 Z " fill="#D7D7D7" transform="translate(288,215)"/>
<path d="M0 0 C0 0.66 0 1.32 0 2 C-1.57421875 3.48046875 -1.57421875 3.48046875 -3.6875 5.1875 C-7.55737013 8.45936178 -10.23594479 11.76754047 -13 16 C-13.6953125 14.25 -13.6953125 14.25 -14 12 C-11.31859377 7.73639755 -5.30858779 0 0 0 Z " fill="#E2E2E2" transform="translate(292,265)"/>
<path d="M0 0 C0.33 0 0.66 0 1 0 C1.28875 1.134375 1.5775 2.26875 1.875 3.4375 C2.24625 4.613125 2.6175 5.78875 3 7 C5.9615696 8.4807848 8.83506295 8.35314037 12.125 8.5625 C13.40632813 8.64628906 14.68765625 8.73007813 16.0078125 8.81640625 C16.99523437 8.87699219 17.98265625 8.93757812 19 9 C19 9.33 19 9.66 19 10 C16.22858283 10.08089542 13.45952181 10.14044062 10.6875 10.1875 C9.90181641 10.21263672 9.11613281 10.23777344 8.30664062 10.26367188 C7.54931641 10.27333984 6.79199219 10.28300781 6.01171875 10.29296875 C5.31522217 10.3086792 4.61872559 10.32438965 3.90112305 10.34057617 C1.38972689 9.89067279 0.52107105 9.01664486 -1 7 C-1.25 3.875 -1.25 3.875 -1 1 C-0.67 0.67 -0.34 0.34 0 0 Z " fill="#F2F2F2" transform="translate(266,247)"/>
<path d="M0 0 C0.66 0 1.32 0 2 0 C0.62968895 5.65253308 -3.67689413 8.5113541 -8 12 C-8.33 11.01 -8.66 10.02 -9 9 C-8.2575 8.443125 -7.515 7.88625 -6.75 7.3125 C-3.92455792 5.09173001 -3.92455792 5.09173001 -1.8125 2.25 C-1.214375 1.5075 -0.61625 0.765 0 0 Z " fill="#D8D8D8" transform="translate(155,266)"/>
<path d="M0 0 C0.99 0 1.98 0 3 0 C3.125 2.875 3.125 2.875 3 6 C2.34 6.66 1.68 7.32 1 8 C-1.125 7.625 -1.125 7.625 -3 7 C-2.25 2.25 -2.25 2.25 0 0 Z " fill="#9B9B9B" transform="translate(194,243)"/>
<path d="M0 0 C0.78375 0.04125 1.5675 0.0825 2.375 0.125 C1.97696439 3.01075819 1.58490931 3.94689513 -0.6875 5.875 C-1.326875 6.2875 -1.96625 6.7 -2.625 7.125 C-3.285 5.475 -3.945 3.825 -4.625 2.125 C-2.625 0.125 -2.625 0.125 0 0 Z " fill="#C4C4C4" transform="translate(181.625,240.875)"/>
<path d="M0 0 C1.37095624 3.69037278 0.60010967 5.70883835 -0.9375 9.25 C-1.31777344 10.14203125 -1.69804687 11.0340625 -2.08984375 11.953125 C-2.39019531 12.62859375 -2.69054687 13.3040625 -3 14 C-3.66 14 -4.32 14 -5 14 C-4.46515599 8.65155992 -2.53309233 4.64203897 0 0 Z " fill="#E2E2E2" transform="translate(154,227)"/>
<path d="M0 0 C6.52307692 -0.36923077 6.52307692 -0.36923077 8.9375 1.5 C9.288125 1.995 9.63875 2.49 10 3 C6.52674819 4.1577506 3.63932552 4.06866652 0 4 C0 2.68 0 1.36 0 0 Z " fill="#E3E3E3" transform="translate(146,212)"/>
<path d="M0 0 C0.66 0 1.32 0 2 0 C1.54738642 1.43931117 1.08767021 2.87638999 0.625 4.3125 C0.36976563 5.11300781 0.11453125 5.91351563 -0.1484375 6.73828125 C-1 9 -1 9 -3 12 C-3.99 11.67 -4.98 11.34 -6 11 C-4.02 7.37 -2.04 3.74 0 0 Z " fill="#D2D2D2" transform="translate(235,243)"/>
<path d="M0 0 C0.66 0 1.32 0 2 0 C1.88648483 1.81325551 1.75887039 3.62563357 1.625 5.4375 C1.55539063 6.44683594 1.48578125 7.45617187 1.4140625 8.49609375 C1.27742187 9.32238281 1.14078125 10.14867187 1 11 C0.01 11.495 0.01 11.495 -1 12 C-1.02687279 10.18757948 -1.04633715 8.37504767 -1.0625 6.5625 C-1.07410156 5.55316406 -1.08570313 4.54382813 -1.09765625 3.50390625 C-1 1 -1 1 0 0 Z " fill="#EFEFEF" transform="translate(213,242)"/>
<path d="M0 0 C0.33 0.99 0.66 1.98 1 3 C-2.63423209 5.32590854 -5.77088331 5.16265833 -10 5 C-10 4.34 -10 3.68 -10 3 C-6.97265625 2.26757812 -6.97265625 2.26757812 -3.9453125 1.53515625 C-1.9414343 1.05153008 -1.9414343 1.05153008 0 0 Z " fill="#F0F0F0" transform="translate(145,276)"/>
<path d="M0 0 C0.33 0 0.66 0 1 0 C0.67 2.97 0.34 5.94 0 9 C-0.99 9.33 -1.98 9.66 -3 10 C-2.25 3.375 -2.25 3.375 0 0 Z " fill="#DBDBDB" transform="translate(298,234)"/>
<path d="M0 0 C0.33 0 0.66 0 1 0 C1.1953125 6.0546875 1.1953125 6.0546875 1 8 C0.34 8.66 -0.32 9.32 -1 10 C-1.66 10 -2.32 10 -3 10 C-3 8.02 -3 6.04 -3 4 C-2.34 4 -1.68 4 -1 4 C-0.67 2.68 -0.34 1.36 0 0 Z " fill="#FCFCFC" transform="translate(347,236)"/>
<path d="M0 0 C1 3 1 3 0.22265625 5.04296875 C-0.16019531 5.75066406 -0.54304688 6.45835937 -0.9375 7.1875 C-1.31777344 7.90292969 -1.69804687 8.61835938 -2.08984375 9.35546875 C-2.54037109 10.16951172 -2.54037109 10.16951172 -3 11 C-3.33 11 -3.66 11 -4 11 C-3.56179109 6.44262737 -3.14958831 3.42346555 0 0 Z " fill="#282828" transform="translate(343,242)"/>
<path d="M0 0 C0.99 0.33 1.98 0.66 3 1 C2.1875 4.4375 2.1875 4.4375 1 8 C0.01 8.33 -0.98 8.66 -2 9 C-1.125 2.25 -1.125 2.25 0 0 Z " fill="#D5D5D5" transform="translate(267,239)"/>
<path d="M0 0 C0.99 0.33 1.98 0.66 3 1 C3.33 2.98 3.66 4.96 4 7 C3.34 7 2.68 7 2 7 C1.67 6.34 1.34 5.68 1 5 C0.34 5.66 -0.32 6.32 -1 7 C-2 4 -2 4 -1.0625 1.8125 C-0.5365625 0.9153125 -0.5365625 0.9153125 0 0 Z " fill="#C1C1C1" transform="translate(164,250)"/>
<path d="M0 0 C0.66 0 1.32 0 2 0 C2 3.3 2 6.6 2 10 C-1.47244094 5.37007874 -1.47244094 5.37007874 -1 1 C-0.67 0.67 -0.34 0.34 0 0 Z " fill="#D4D4D4" transform="translate(351,242)"/>
<path d="M0 0 C-2.42755736 2.42755736 -4.89189508 3.57545191 -8 5 C-8.66 5 -9.32 5 -10 5 C-9 2 -9 2 -7.25 0.8125 C-4.70039426 -0.10819096 -2.69076919 -0.14948718 0 0 Z " fill="#E2E2E2" transform="translate(199,227)"/>
<path d="M0 0 C0 3 0 3 -2.5 5.6875 C-3.325 6.450625 -4.15 7.21375 -5 8 C-5 6.68 -5 5.36 -5 4 C-2.5 1.75 -2.5 1.75 0 0 Z " fill="#E9E9E9" transform="translate(279,223)"/>
<path d="M0 0 C0.33 0.66 0.66 1.32 1 2 C2.65 1.67 4.3 1.34 6 1 C5.34 2.32 4.68 3.64 4 5 C2.68 5 1.36 5 0 5 C0 3.35 0 1.7 0 0 Z " fill="#E6E6E6" transform="translate(364,253)"/>
<path d="M0 0 C0.33 0.99 0.66 1.98 1 3 C2.65 2.67 4.3 2.34 6 2 C5.67 2.99 5.34 3.98 5 5 C3.35 5 1.7 5 0 5 C-0.5625 3.0625 -0.5625 3.0625 -1 1 C-0.67 0.67 -0.34 0.34 0 0 Z " fill="#E5E5E5" transform="translate(214,252)"/>
<path d="M0 0 C2.31 0.66 4.62 1.32 7 2 C7 2.66 7 3.32 7 4 C4.625 4.625 4.625 4.625 2 5 C1.34 4.34 0.68 3.68 0 3 C0 2.01 0 1.02 0 0 Z " fill="#CDCDCD" transform="translate(196,249)"/>
<path d="M0 0 C0.268125 0.598125 0.53625 1.19625 0.8125 1.8125 C1.8893979 4.04327908 1.8893979 4.04327908 3.625 5.625 C4.07875 6.07875 4.5325 6.5325 5 7 C5 7.66 5 8.32 5 9 C1.125 8.125 1.125 8.125 0 7 C-0.04092937 4.66702567 -0.04241723 2.33294775 0 0 Z " fill="#EAEAEA" transform="translate(327,245)"/>
<path d="M0 0 C0.66 0 1.32 0 2 0 C2.33 1.98 2.66 3.96 3 6 C1.68 6.33 0.36 6.66 -1 7 C-0.67 4.69 -0.34 2.38 0 0 Z " fill="#CBCBCB" transform="translate(167,242)"/>
<path d="M0 0 C2 3 2 3 2 5 C2.99 5.33 3.98 5.66 5 6 C3.35 6.33 1.7 6.66 0 7 C-1.125 2.25 -1.125 2.25 0 0 Z " fill="#A3A3A3" transform="translate(277,278)"/>
<path d="M0 0 C1.32 1.32 2.64 2.64 4 4 C3.67 4.99 3.34 5.98 3 7 C1.68 6.01 0.36 5.02 -1 4 C-0.67 2.68 -0.34 1.36 0 0 Z " fill="#DEDEDE" transform="translate(131,274)"/>
<path d="M0 0 C0.99 0.33 1.98 0.66 3 1 C0.87219421 3.34058637 -1.11562221 4.70700306 -4 6 C-2.84826645 3.53199953 -1.95216435 1.95216435 0 0 Z " fill="#D8D8D8" transform="translate(280,220)"/>
</svg>
